Xenia, Ohio, is a small poor and boring city that never fully recovered after a tornado in the 1970s. Teenager Solomon and his slightly older friend Tummler, have nothing to do but kill time, buying glue to sniff and get high. From IMDb

General 
Unique ID : 318850542131041271445665600980388687670 (0xEFE06174BB33AD53AAA93F92536C2F36) 
Complete name : Gummo.1997.DVDRip.x264.mkv 
Format : Matroska 
Format version : Version 2 
File size : 1.22 GiB 
Duration : 1h 29mn 
Overall bit rate : 1 963 Kbps 
Writing application : HandBrake 0.9.8 
Writing library : libmkv 0.6.5 

Video 
ID : 1 
Format : AVC 
Format/Info : Advanced Video Codec 
Format profile : High@L3.1 
Format settings, CABAC : Yes 
Format settings, ReFrames : 11 frames 
Codec ID : V_MPEG4/ISO/AVC 
Duration : 1h 29mn 
Bit rate : 1 732 Kbps 
Width : 716 pixels 
Height : 460 pixels 
Display aspect ratio : 1.85:1 
Original display aspect ratio : 1.85:1 
Frame rate mode : Constant 
Frame rate : 23.976 fps 
Color space : YUV 
Chroma subsampling : 4:2:0 
Bit depth : 8 bits 
Scan type : Progressive 
Bits/(Pixel*Frame) : 0.219 
Stream size : 1.08 GiB (88%) 
Writing library : x264 core 120 
Encoding settings : cabac=1 / ref=11 / deblock=1:-2:-2 / analyse=0x3:0x133 / me=umh / subme=11 / psy=1 / psy_rd=1.00:0.00 / mixed_ref=1 / me_range=32 / chroma_me=1 / trellis=2 / 8x8dct=1 / cqm=0 / deadzone=21,11 / fast_pskip=0 / chroma_qp_offset=-2 / threads=12 / sliced_threads=0 / nr=0 / decimate=1 / interlaced=0 / bluray_compat=0 / constrained_intra=0 / bframes=9 / b_pyramid=2 / b_adapt=2 / b_bias=0 / direct=3 / weightb=1 / open_gop=0 / weightp=2 / keyint=240 / keyint_min=24 / scenecut=40 / intra_refresh=0 / rc_lookahead=240 / rc=crf / mbtree=1 / crf=18.5 / qcomp=0.60 / qpmin=3 / qpmax=69 / qpstep=4 / ip_ratio=1.40 / aq=2:1.00 
Language : English 
Default : Yes 
Forced : No 
Color primaries : BT.601 NTSC 
Transfer characteristics : BT.709 
Matrix coefficients : BT.601 

Audio 
ID : 2 
Format : AC-3 
Format/Info : Audio Coding 3 
Mode extension : CM (complete main) 
Format settings, Endianness : Big 
Codec ID : A_AC3 
Duration : 1h 29mn 
Bit rate mode : Constant 
Bit rate : 192 Kbps 
Channel(s) : 2 channels 
Channel positions : Front: L R 
Sampling rate : 48.0 KHz 
Bit depth : 16 bits 
Compression mode : Lossy 
Stream size : 122 MiB (10%) 
Language : English 
Default : Yes 
Forced : No 

Text 
ID : 3 
Format : VobSub 
Codec ID : S_VOBSUB 
Codec ID/Info : The same subtitle format used on DVDs 
Language : English 
Default : No 
Forced : No 

Menu 
00:00:00.000 : Chapter 1 
00:04:04.035 : Chapter 2 
00:07:32.577 : Chapter 3 
00:12:13.315 : Chapter 4 
00:14:36.333 : Chapter 5 
00:15:45.069 : Chapter 6 
00:17:30.340 : Chapter 7 
00:19:16.572 : Chapter 8 
00:22:24.634 : Chapter 9 
00:24:51.072 : Chapter 10 
00:27:45.580 : Chapter 11 
00:30:47.762 : Chapter 12 
00:33:33.761 : Chapter 13 
00:38:40.443 : Chapter 14 
00:42:32.508 : Chapter 15 
00:46:14.396 : Chapter 16 
00:47:34.518 : Chapter 17 
00:48:14.308 : Chapter 18 
00:49:49.069 : Chapter 19 
00:52:11.753 : Chapter 20 
00:57:53.261 : Chapter 21 
01:02:27.660 : Chapter 22 
01:08:02.661 : Chapter 23 
01:13:24.858 : Chapter 24 
01:17:41.907 : Chapter 25 
01:22:21.353 : Chapter 26 
01:25:19.114 : Chapter 27 

My rip.